<?xml version="1.0" ?><!DOCTYPE svg  PUBLIC '-//W3C//DTD SVG 1.1//EN'  'http://www.w3.org/Graphics/SVG/1.1/DTD/svg11.dtd'><svg enable-background="new 0 0 128 128" id="Слой_1" version="1.1" viewBox="0 0 128 128" xml:space="preserve" xmlns="http://www.w3.org/2000/svg" xmlns:xlink="http://www.w3.org/1999/xlink"><g><circle cx="64" cy="64" fill="#ECEBEC" r="62"/><path d="M107.8,107.8c2.8-2.8,5.2-5.7,7.3-8.8c-2.1-1.5-4.5-2.9-7.3-4.3c-24.2-11.7-63.5-11.7-87.7,0   c-2.8,1.3-5.2,2.8-7.3,4.3c2.1,3.1,4.5,6,7.3,8.8C44.4,132.1,83.6,132.1,107.8,107.8z" fill="#9DD9DF"/><path d="M108.4,93.7c-24.5-11.8-64.3-11.8-88.8,0c-2.7,1.3-5.2,2.8-7.5,4.4c0.5,0.7,0.9,1.4,1.4,2.1c0,0,0,0,0,0   c2.1-1.5,4.5-2.9,7.1-4.2c23.9-11.6,62.7-11.6,86.6,0c2.6,1.3,5,2.7,7.1,4.2c0,0,0,0,0,0c0.5-0.7,1-1.4,1.4-2.1   C113.6,96.4,111.1,95,108.4,93.7z" fill="#62345B"/><g><g opacity="0.2"><path d="M87.6,107.7c0,4.2-6.8,7.6-15.2,7.6H64c0-4.2,14.1-14.8,16.4-14.1C84.7,102.6,87.6,105,87.6,107.7z" fill="#62345B"/></g><g><path d="M102.8,52.8C102.8,31.4,85.4,14,64,14S25.2,31.4,25.2,52.8c0,0.7,0,1.4,0.1,2     c1.1,21.8,18.8,47.7,36.2,58.5c0.8,0.5,1.7,0.7,2.6,0.7l0,0c0.9,0,1.7-0.2,2.5-0.7c17.4-10.7,35.1-36.7,36.2-58.5     C102.8,54.1,102.8,53.5,102.8,52.8z" fill="#EE7F8F"/></g><g opacity="0.2"><path d="M64,14c-1.1,0-2.3,0.1-3.4,0.2C80.4,15.9,96,32.5,96,52.8c0,0.7,0,1.3-0.1,2c-1,21.4-18.2,46.9-35.3,57.9     c0.3,0.2,0.6,0.4,0.9,0.6c0.8,0.5,1.7,0.7,2.6,0.7c0.9,0,1.7-0.2,2.5-0.7c17.4-10.7,35.1-36.7,36.2-58.5c0-0.7,0.1-1.3,0.1-2     C102.8,31.4,85.4,14,64,14z" fill="#62345B"/></g><g><path d="M64,115.2c-1.1,0-2.3-0.3-3.2-0.9C44,104,25.1,78.3,24,54.9c0-0.7-0.1-1.4-0.1-2.1c0-22.1,18-40,40-40     s40,18,40,40c0,0.7,0,1.4-0.1,2.1c-1.1,23.4-20,49.1-36.8,59.5C66.3,114.9,65.2,115.2,64,115.2C64.1,115.2,64,115.2,64,115.2z      M64,15.2c-20.7,0-37.5,16.8-37.5,37.5c0,0.7,0,1.3,0,2c1.1,21.9,19.3,47.4,35.6,57.5c0.5,0.3,1.2,0.5,1.9,0.5v1.2l0-1.3     c0.7,0,1.3-0.2,1.8-0.5c16.3-10.1,34.5-35.6,35.6-57.5c0-0.7,0.1-1.3,0.1-2C101.5,32.1,84.7,15.2,64,15.2z" fill="#62345B"/></g><g><circle cx="64" cy="52.8" fill="#FFFFFF" r="30.6"/></g><g><path d="M75.5,60.9c-0.6-0.2-1.2-0.1-1.7,0.3c-2.7,2.2-6.1,3.5-9.8,3.5s-7.1-1.3-9.8-3.5     c-0.5-0.4-1.1-0.5-1.7-0.3c-6,1.9-10.1,7.7-9.5,14.2c5.5,5.2,12.9,8.3,21,8.3s15.5-3.2,21-8.3C85.6,68.6,81.4,62.7,75.5,60.9z" fill="#ADA2B5"/></g><g><path d="M64,84.7c-17.6,0-31.9-14.3-31.9-31.9S46.4,20.9,64,20.9s31.9,14.3,31.9,31.9S81.6,84.7,64,84.7z      M64,23.4c-16.2,0-29.4,13.2-29.4,29.4S47.8,82.2,64,82.2S93.4,69,93.4,52.8S80.2,23.4,64,23.4z" fill="#62345B"/></g><g><circle cx="64" cy="47.1" fill="#ADA2B5" r="11.1"/></g><g><path d="M64,59.5c-6.8,0-12.4-5.5-12.4-12.4S57.2,34.8,64,34.8s12.4,5.5,12.4,12.4S70.8,59.5,64,59.5z M64,37.2     c-5.4,0-9.9,4.4-9.9,9.9S58.6,57,64,57c5.4,0,9.9-4.4,9.9-9.9S69.4,37.2,64,37.2z" fill="#62345B"/></g><g><path d="M64,84.7c-8.2,0-15.9-3.1-21.8-8.7c-0.2-0.2-0.4-0.5-0.4-0.8c-0.6-6.9,3.8-13.4,10.4-15.5     c1-0.3,2.1-0.1,2.9,0.6c2.6,2.1,5.7,3.2,9,3.2s6.4-1.1,9-3.2c0.8-0.7,1.9-0.9,2.9-0.6c6.6,2.1,11,8.6,10.4,15.5     c0,0.3-0.2,0.6-0.4,0.8C79.9,81.6,72.2,84.7,64,84.7z M44.2,74.5c5.4,4.9,12.4,7.7,19.8,7.7s14.4-2.7,19.8-7.7     c0.3-5.6-3.3-10.8-8.7-12.4c-0.2-0.1-0.4,0-0.5,0.1c-3,2.4-6.7,3.7-10.5,3.7s-7.6-1.3-10.5-3.7c-0.2-0.1-0.4-0.2-0.5-0.1     C47.5,63.7,44,68.9,44.2,74.5z" fill="#62345B"/></g><g opacity="0.1"><path d="M75.1,47.1C75.1,41,70.1,36,64,36c-0.4,0-0.7,0-1.1,0.1c2.8,0.7,5.3,8.9,6.6,20.7     C72.8,54.9,75.1,51.2,75.1,47.1z" fill="#62345B"/></g><g opacity="0.1"><path d="M75.5,60.9c-0.6-0.2-1.2-0.1-1.7,0.3c-1.2,0.9-2.4,1.7-3.8,2.3c0.4,4.5,0.5,9.4,0.5,14.5     c0,1.6,0,3.2-0.1,4.7C76,81.5,81,78.8,85,75.1C85.6,68.6,81.4,62.7,75.5,60.9z" fill="#62345B"/></g></g></g></svg>